# xmcd CD database file
#
# Track frame offsets:
#	150
#	16174
#	38081
#	56113
#	76676
#	87505
#	103996
#	116273
#	131929
#	146969
#	162105
#	188189
#
# Disc length: 3383 seconds
#
# Revision: 0
# Processed by: cddbd v1.5.2PL0 Copyright (c) Steve Scherf et al.
# Submitted via: CDex 1.70beta2
#
DISCID=a10d350c
DTITLE=Axxis - Best Of cd2
DYEAR=2005
DGENRE=Melodic Metal
TTITLE0=Living in a World
TTITLE1=Kingdom of the Night
TTITLE2=Little War
TTITLE3=Ships are Sailing
TTITLE4=Touch the Rainbow
TTITLE5=Heaven in Black
TTITLE6=C'est la Vie
TTITLE7=Fire and Ice
TTITLE8=Another Day
TTITLE9=Kings made of Steel
TTITLE10=Julia
TTITLE11=Videos
EXTD=YEAR: 2005
EXTT0=
EXTT1=
EXTT2=
EXTT3=
EXTT4=
EXTT5=
EXTT6=
EXTT7=
EXTT8=
EXTT9=
EXTT10=
EXTT11=
PLAYORDER=
